<?xml version="1.0" encoding="UTF-8" standalone="no"?>
<!-- Created with Inkscape (http://www.inkscape.org/) -->

<svg
   xmlns:dc="http://purl.org/dc/elements/1.1/"
   xmlns:cc="http://creativecommons.org/ns#"
   xmlns:rdf="http://www.w3.org/1999/02/22-rdf-syntax-ns#"
   xmlns:svg="http://www.w3.org/2000/svg"
   xmlns="http://www.w3.org/2000/svg"
   xmlns:sodipodi="http://sodipodi.sourceforge.net/DTD/sodipodi-0.dtd"
   xmlns:inkscape="http://www.inkscape.org/namespaces/inkscape"
   version="1.1"
   id="svg2"
   xml:space="preserve"
   width="2368.2268"
   height="416"
   viewBox="0 0 2368.2268 416"
   sodipodi:docname="logo_cib-red.svg"
   inkscape:version="0.92.3 (2405546, 2018-03-11)"><metadata
     id="metadata8"><rdf:RDF><cc:Work
         rdf:about=""><dc:format>image/svg+xml</dc:format><dc:type
           rdf:resource="http://purl.org/dc/dcmitype/StillImage" /><dc:title></dc:title></cc:Work></rdf:RDF></metadata><defs
     id="defs6"><clipPath
       clipPathUnits="userSpaceOnUse"
       id="clipPath18"><path
         d="M 0,505.487 H 1776.173 V 0 H 0 Z"
         id="path16"
         inkscape:connector-curvature="0" /></clipPath></defs><sodipodi:namedview
     pagecolor="#ffffff"
     bordercolor="#666666"
     borderopacity="1"
     objecttolerance="10"
     gridtolerance="10"
     guidetolerance="10"
     inkscape:pageopacity="0"
     inkscape:pageshadow="2"
     inkscape:window-width="1366"
     inkscape:window-height="705"
     id="namedview4"
     showgrid="false"
     inkscape:zoom="0.25799894"
     inkscape:cx="486.43612"
     inkscape:cy="336.99133"
     inkscape:window-x="253"
     inkscape:window-y="1072"
     inkscape:window-maximized="1"
     inkscape:current-layer="g10" /><g
     id="g10"
     inkscape:groupmode="layer"
     inkscape:label="FA_SANTANDER_CORPORATE_INVESTMENT_BANK_CV_POS_RGB"
     transform="matrix(1.3333333,0,0,-1.3333333,0,416)"><g
       id="g12"
       transform="matrix(1.1930371,0,0,1.1930371,-171.24798,-157.23199)"
       style="stroke-width:0.83819693"><g
         id="g14"
         clip-path="url(#clipPath18)"
         style="stroke-width:0.83819693"><g
           id="g20"
           transform="translate(1436.1914,201.9566)"
           style="stroke-width:0.83819693"><path
             d="m 0,0 c -5.35,0 -11.559,-0.955 -17.959,-2.675 v -47.76 h 6.688 V -7.26 c 3.628,0.861 7.64,1.338 11.08,1.338 11.748,0 15.091,-4.585 15.091,-13.469 v -31.044 h 6.688 v 32.287 C 21.588,-6.591 16.143,0 0,0 m -618.146,69.845 c -4.231,-3.245 -9.309,-5.362 -15.514,-5.362 -13.823,0 -19.607,10.157 -19.607,24.543 0,16.08 7.334,25.672 22.709,25.672 4.091,0 8.322,-0.564 12.412,-1.411 z m 0,56.983 c -3.667,0.706 -7.475,1.129 -11.566,1.129 -26.094,0 -39.353,-14.104 -39.353,-38.931 0,-23.695 12.414,-37.236 31.032,-37.236 10.155,0 16.22,4.09 20.17,10.719 l 0.846,-9.027 h 14.246 v 98.736 c -5.078,0 -10.579,-0.423 -15.375,-2.116 z m 61.643,-11.848 c 10.721,0 16.927,-6.77 16.927,-18.336 h -34.982 c 1.27,11.99 7.054,18.336 18.055,18.336 m 27.787,-58.676 c 0.988,4.654 1.834,10.013 2.398,14.104 -7.757,-3.526 -16.362,-5.359 -24.825,-5.359 -13.824,0 -21.158,6.064 -23.132,18.618 h 49.508 c 0.565,4.09 0.847,7.616 0.847,11.989 0,17.773 -9.592,32.301 -31.736,32.301 -24.684,0 -34.416,-16.644 -34.416,-37.661 0,-24.119 12.552,-38.506 38.506,-38.506 8.322,0 15.797,1.27 22.85,4.514 M -664.922,-45.754 c -10.603,0 -16.525,5.636 -16.525,13.564 0,6.973 3.916,11.653 12.035,13.754 l 21.873,-20.058 c -4.201,-4.49 -9.742,-7.26 -17.383,-7.26 m 33.813,34.864 c -1.911,0 -4.012,-0.094 -6.399,-0.763 -0.955,-7.833 -2.867,-15.665 -6.4,-21.874 l -22.16,20.441 c -4.586,4.298 -7.643,8.883 -7.643,13.468 0,6.495 4.203,10.602 14.137,10.602 5.349,0 10.029,-1.05 14.519,-2.961 0.573,1.433 1.147,3.535 1.242,6.018 -5.541,2.102 -10.794,2.962 -16.525,2.962 -13.469,0 -20.346,-6.878 -20.346,-16.334 0,-6.113 2.674,-10.508 6.782,-14.806 -9.647,-3.343 -14.423,-10.125 -14.423,-18.627 0,-12.131 9.647,-19.007 23.307,-19.007 9.551,0 16.715,3.534 21.969,9.074 l 8.502,-7.738 h 8.883 l -13.565,12.609 c 4.967,7.641 7.452,17.48 8.12,26.936 m 593.472,-30.279 c -3.152,-3.057 -7.164,-4.872 -12.131,-4.872 -10.41,0 -15.759,7.547 -15.759,19.868 0,12.8 5.826,20.251 18.625,20.251 3.439,0 6.4,-0.383 9.265,-1.146 z m -34.674,14.996 c 0,-16.334 8.407,-25.408 21.971,-25.408 5.35,0 9.742,2.006 12.99,4.872 l 0.192,-3.726 h 6.209 v 47.76 C -36.012,-0.764 -40.979,0 -46.902,0 -64,0 -72.311,-9.361 -72.311,-26.173 M 71.832,-1.146 H 63.713 L 43.176,-23.402 v -0.669 l 21.873,-26.364 h 8.31 L 51.008,-23.689 Z M -773.625,-35.533 V -7.45 h 16.62 c 0.382,1.814 0.573,3.724 0.669,6.017 h -17.289 v 17.671 c -2.006,0 -4.681,-0.382 -6.687,-1.05 v -51.486 c 0,-10.698 5.636,-15.283 14.806,-15.283 2.961,0 5.731,0.477 8.597,1.528 0.382,1.816 0.669,3.917 0.86,5.732 -2.58,-0.955 -5.637,-1.529 -8.31,-1.529 -5.923,0 -9.266,3.057 -9.266,10.317 m 57.025,13.468 h -29.037 c 0.764,9.934 5.445,16.238 14.996,16.238 9.457,0 14.041,-6.4 14.041,-15.856 z M -730.354,0 c -15.666,0 -22.065,-11.271 -22.065,-25.504 0,-16.43 8.405,-26.077 24.358,-26.077 5.444,0 10.412,0.86 15.188,3.63 0.476,2.101 0.859,4.68 1.051,6.4 -5.159,-2.962 -10.891,-4.107 -16.048,-4.107 -10.89,0 -16.907,6.113 -17.767,17.575 h 35.342 c 0.287,1.91 0.383,3.916 0.383,5.923 0,12.321 -6.113,22.16 -20.442,22.16 m 764.36,-50.435 h 6.685 V 16.62 c -2.197,0 -4.488,-0.286 -6.685,-0.955 z M -681.481,53.482 v 47.393 c 0,17.067 -8.322,27.082 -34.275,27.082 -7.476,0 -18.337,-1.552 -28.21,-3.949 V 53.482 h 15.515 v 60.087 c 4.231,0.706 8.604,1.129 12.272,1.129 15.515,0 19.183,-5.36 19.183,-16.503 V 53.482 Z m 437.999,-75.547 h -29.039 c 0.763,9.934 5.445,16.238 14.996,16.238 9.457,0 14.043,-6.4 14.043,-15.856 z M -257.238,0 c -15.664,0 -22.065,-11.271 -22.065,-25.504 0,-16.43 8.407,-26.077 24.358,-26.077 5.445,0 10.412,0.86 15.187,3.63 0.479,2.101 0.86,4.68 1.051,6.4 -5.158,-2.962 -10.889,-4.107 -16.047,-4.107 -10.891,0 -16.908,6.113 -17.767,17.575 h 35.341 c 0.287,1.91 0.383,3.916 0.383,5.923 0,12.321 -6.113,22.16 -20.441,22.16 m 151.972,-44.226 h -11.843 v 24.835 h 12.418 c 12.035,0 17.957,-4.776 17.957,-12.512 0,-8.311 -5.827,-12.323 -18.532,-12.323 m -11.843,54.16 c 3.343,0.382 6.4,0.573 9.457,0.573 14.136,0 17.957,-5.063 17.957,-11.94 0,-6.878 -5.159,-11.749 -15.475,-11.749 h -11.939 z m 23.019,-25.886 c 7.164,2.389 11.176,8.597 11.176,15.283 0,10.698 -7.068,17.385 -24.834,17.385 -5.35,0 -10.984,-0.478 -16.047,-1.337 v -65.814 h 19.199 c 17.289,0 24.739,6.878 24.739,18.818 0,8.023 -5.444,14.041 -14.233,15.665 m -74.123,-19.581 V -7.45 h 16.621 c 0.383,1.814 0.574,3.724 0.668,6.017 h -17.289 v 17.671 c -2.006,0 -4.68,-0.382 -6.685,-1.05 v -51.486 c 0,-10.698 5.634,-15.283 14.804,-15.283 2.963,0 5.733,0.477 8.598,1.528 0.383,1.816 0.668,3.917 0.859,5.732 -2.578,-0.955 -5.634,-1.529 -8.31,-1.529 -5.922,0 -9.266,3.057 -9.266,10.317 M -561.188,0 c -5.347,0 -11.556,-0.955 -17.957,-2.675 v -47.76 h 6.686 V -7.26 c 3.631,0.861 7.643,1.338 11.08,1.338 11.75,0 15.094,-4.585 15.094,-13.469 v -31.044 h 6.685 v 32.287 C -539.6,-6.591 -545.045,0 -561.188,0 m 352.856,0 c -5.348,0 -11.557,-0.955 -17.957,-2.675 v -47.76 h 6.685 V -7.26 c 3.631,0.861 7.643,1.338 11.081,1.338 11.75,0 15.093,-4.585 15.093,-13.469 v -31.044 h 6.686 v 32.287 c 0,11.557 -5.445,18.148 -21.588,18.148 m -242.336,-22.065 h -29.037 c 0.764,9.934 5.443,16.238 14.996,16.238 9.457,0 14.041,-6.4 14.041,-15.856 z M -464.422,0 c -15.666,0 -22.066,-11.271 -22.066,-25.504 0,-16.43 8.406,-26.077 24.357,-26.077 5.445,0 10.412,0.86 15.188,3.63 0.478,2.101 0.861,4.68 1.05,6.4 -5.156,-2.962 -10.888,-4.107 -16.047,-4.107 -10.888,0 -16.906,6.113 -17.765,17.575 h 35.342 c 0.287,1.91 0.382,3.916 0.382,5.923 0,12.321 -6.113,22.16 -20.441,22.16 m -46.807,-43.939 -15.474,42.793 h -7.26 l 18.436,-49.289 h 8.31 l 18.244,49.289 h -7.164 z M -308.916,0 c -5.826,0 -11.463,-1.528 -16.717,-4.012 -3.344,2.77 -8.31,4.012 -14.996,4.012 -6.113,0 -12.418,-0.955 -18.818,-2.675 v -47.76 h 6.687 V -7.26 c 3.725,0.861 7.832,1.338 11.463,1.338 10.221,0 14.041,-3.821 14.041,-13.087 v -31.426 h 6.686 v 32.287 c 0,3.82 -0.573,6.972 -1.623,9.456 4.011,1.719 8.31,2.77 12.703,2.77 9.84,0 14.043,-4.585 14.043,-13.277 v -31.236 h 6.685 v 32.287 c 0,11.557 -5.73,18.148 -20.154,18.148 m -76.225,-35.533 V -7.45 h 16.621 c 0.381,1.814 0.573,3.724 0.668,6.017 h -17.289 v 17.671 c -2.005,0 -4.681,-0.382 -6.687,-1.05 v -51.486 c 0,-10.698 5.637,-15.283 14.807,-15.283 2.96,0 5.73,0.477 8.595,1.528 0.383,1.816 0.67,3.917 0.862,5.732 -2.581,-0.955 -5.637,-1.529 -8.311,-1.529 -5.922,0 -9.266,3.057 -9.266,10.317 m -29.228,12.226 -4.49,1.529 c -5.922,2.006 -9.647,3.63 -9.647,8.978 0,4.681 3.725,7.069 11.08,7.069 4.68,0 9.551,-0.764 13.946,-2.388 0.572,1.91 0.859,4.012 0.955,5.636 -4.395,1.719 -9.553,2.483 -15.092,2.483 -10.795,0 -17.289,-4.489 -17.289,-12.99 0,-7.643 4.679,-11.941 13.181,-14.52 l 4.395,-1.337 c 4.584,-1.433 9.838,-3.439 9.838,-9.17 0,-5.445 -4.49,-7.737 -11.844,-7.737 -4.873,0 -11.082,1.147 -15.57,3.725 -0.479,-1.337 -0.86,-3.152 -0.955,-5.826 4.488,-2.58 10.029,-3.726 16.714,-3.726 11.463,0 18.151,5.062 18.151,13.755 0,8.31 -5.828,11.94 -13.373,14.519 M -602.26,-50.435 h 6.686 v 66.673 c -2.102,0 -4.967,-0.573 -6.686,-1.05 z m 785.373,9.266 c -3.152,-3.057 -7.164,-4.872 -12.131,-4.872 -10.412,0 -15.761,7.547 -15.761,19.868 0,12.8 5.828,20.251 18.627,20.251 3.439,0 6.4,-0.383 9.265,-1.146 z M 173.848,0 c -17.098,0 -25.409,-9.361 -25.409,-26.173 0,-16.334 8.407,-25.408 21.969,-25.408 5.254,0 9.553,1.911 12.705,4.681 v -2.579 c 0,-10.699 -5.922,-14.902 -16.238,-14.902 -3.916,0 -9.266,0.86 -13.66,2.962 -0.381,-1.72 -0.668,-4.299 -0.668,-5.923 4.488,-1.91 9.457,-2.769 14.328,-2.769 15.951,0 22.924,8.215 22.924,21.491 V -2.675 C 184.736,-0.764 179.77,0 173.848,0 m -1249.702,10.603 c 4.68,0 9.265,-0.86 13.086,-2.292 0.573,1.718 1.051,4.107 1.146,6.399 -4.107,1.624 -9.265,2.293 -14.232,2.293 -20.06,0 -31.618,-12.609 -31.618,-34.388 0,-20.727 10.985,-34.386 30.949,-34.386 5.253,0 9.552,0.667 13.277,2.005 0.573,2.484 0.955,4.776 1.051,7.069 -3.821,-1.72 -8.884,-2.675 -13.469,-2.675 -15.091,0 -24.835,10.412 -24.835,28.274 0,18.149 9.744,27.701 24.645,27.701 m 76.036,-13.278 v -47.76 h 6.685 v 43.462 c 3.153,0.668 6.592,1.051 9.362,1.051 2.674,0 5.158,-0.096 7.355,-0.383 0.382,1.243 0.668,3.726 0.668,5.732 -2.102,0.287 -5.063,0.382 -8.215,0.382 -5.158,0 -11.652,-1.051 -15.855,-2.484 m -16.954,91.701 c 0,15.798 7.475,25.672 23.555,25.672 4.372,0 7.899,-0.282 11.143,-0.845 V 69.562 c -4.09,-3.104 -9.028,-5.079 -15.093,-5.079 -13.822,0 -19.605,10.157 -19.605,24.543 m 35.122,-27.082 0.845,-8.462 h 14.246 v 70.526 c -8.18,2.82 -16.503,3.949 -26.658,3.949 -26.095,0 -39.353,-14.104 -39.353,-38.931 0,-23.695 12.412,-37.236 31.031,-37.236 9.873,0 15.938,3.949 19.889,10.154 m -51.506,-107.507 c -10.889,0 -16.62,7.164 -16.62,19.963 0,11.749 5.444,19.582 16.62,19.582 10.795,0 16.525,-7.259 16.525,-19.772 0,-12.036 -5.444,-19.773 -16.525,-19.773 M -1032.965,0 c -14.805,0 -23.593,-9.934 -23.593,-26.077 0,-14.71 7.737,-25.504 23.021,-25.504 15.092,0 23.688,9.935 23.688,26.269 0,14.518 -7.641,25.312 -23.116,25.312 m 537.964,113.853 c 3.809,0.563 7.616,0.845 11.425,0.845 4.373,0 8.041,-0.14 11.707,-0.564 0.847,2.962 1.411,8.603 1.411,13.26 -3.386,0.422 -8.745,0.563 -13.541,0.563 -8.745,0 -19.889,-1.692 -26.519,-3.949 V 53.482 h 15.517 z m -292.554,0.845 c 4.372,0 7.9,-0.282 11.143,-0.845 V 69.562 c -4.09,-3.104 -9.028,-5.079 -15.092,-5.079 -13.822,0 -19.606,10.157 -19.606,24.543 0,15.798 7.475,25.672 23.555,25.672 m -8.321,-62.908 c 9.873,0 15.938,3.949 19.888,10.154 l 0.846,-8.462 h 14.246 v 70.526 c -8.18,2.82 -16.502,3.949 -26.659,3.949 -26.094,0 -39.352,-14.104 -39.352,-38.931 0,-23.695 12.412,-37.236 31.031,-37.236 m -3.54,-92.959 c -3.152,-3.057 -7.164,-4.872 -12.131,-4.872 -10.412,0 -15.762,7.547 -15.762,19.868 0,12.8 5.827,20.251 18.627,20.251 3.439,0 6.401,-0.383 9.266,-1.146 z m -34.674,14.996 c 0,-16.334 8.406,-25.408 21.969,-25.408 5.349,0 9.744,2.006 12.991,4.872 l 0.191,-3.726 h 6.208 v 47.76 C -797.793,-0.764 -802.76,0 -808.682,0 -825.779,0 -834.09,-9.361 -834.09,-26.173 m -244.889,91.504 c -7.758,0 -17.914,1.832 -25.813,5.5 -1.551,-4.514 -2.397,-8.463 -2.68,-14.246 7.899,-3.668 17.349,-5.359 28.916,-5.359 23.978,0 36.249,11.142 36.249,27.363 0,13.682 -7.475,21.722 -25.388,29.339 l -7.617,3.243 c -9.874,4.232 -15.375,8.464 -15.375,15.799 0,7.474 5.642,12.271 17.914,12.271 6.488,0 15.515,-1.269 23.132,-4.091 1.411,4.091 2.398,8.464 2.821,14.106 -8.04,2.82 -16.644,4.091 -25.812,4.091 -22.85,0 -33.993,-10.298 -33.993,-26.377 0,-14.951 9.026,-22.427 22.286,-28.211 l 7.193,-3.103 c 13.259,-5.783 18.619,-9.591 18.619,-17.772 0,-8.322 -7.335,-12.553 -20.452,-12.553 m -99.39,60.794 c -0.223,5.148 -1.664,10.257 -4.33,14.874 l -23.514,40.727 c -1.793,3.105 -3.031,6.433 -3.72,9.846 l -0.982,-1.702 c -5.82,-10.08 -5.82,-22.5 -10e-4,-32.58 l 18.812,-32.582 c 5.819,-10.08 5.819,-22.5 0,-32.581 l -0.983,-1.702 c -0.688,3.413 -1.927,6.741 -3.72,9.846 l -17.221,29.829 -10.995,19.045 c -1.793,3.106 -3.032,6.433 -3.72,9.846 l -0.983,-1.702 c -5.8,-10.046 -5.818,-22.415 -0.057,-32.477 v -10e-4 l 18.87,-32.684 c 5.82,-10.08 5.82,-22.5 0,-32.581 l -0.983,-1.701 c -0.688,3.412 -1.926,6.74 -3.719,9.845 l -23.514,40.728 c -3.154,5.462 -4.595,11.61 -4.331,17.702 -25.171,-6.576 -42.545,-20.54 -42.545,-36.708 0,-22.492 33.62,-40.725 75.092,-40.725 41.472,0 75.092,18.233 75.092,40.725 0,16.169 -17.372,30.136 -42.546,36.713 m 283.814,-171.688 c -10.888,0 -16.621,7.164 -16.621,19.963 0,11.749 5.445,19.582 16.621,19.582 10.794,0 16.526,-7.259 16.526,-19.772 0,-12.036 -5.446,-19.773 -16.526,-19.773 M -894.363,0 c -14.806,0 -23.594,-9.934 -23.594,-26.077 0,-14.71 7.737,-25.504 23.02,-25.504 15.093,0 23.689,9.935 23.689,26.269 0,14.518 -7.641,25.312 -23.115,25.312 m 60.541,54.047 c 0.845,4.089 1.41,8.886 1.834,13.116 -3.386,-1.268 -7.618,-2.114 -12.131,-2.114 -7.476,0 -11.989,3.525 -11.989,12.693 v 34.559 h 23.131 c 0.706,4.09 1.129,8.463 1.411,13.259 h -24.542 v 26.658 c -4.796,0 -10.72,-0.705 -15.516,-2.257 V 75.909 c 0,-17.208 9.591,-24.119 24.684,-24.119 4.373,0 8.886,0.564 13.118,2.257 M 79.377,-50.435 h 6.687 v 49.288 h -6.687 z m 3.344,65.91 c -2.578,0 -4.489,-1.912 -4.489,-4.491 0,-2.578 1.911,-4.393 4.489,-4.393 2.58,0 4.394,1.815 4.394,4.393 0,2.579 -1.814,4.491 -4.394,4.491 m -943.938,-18.15 v -47.76 h 6.686 v 43.462 c 3.152,0.668 6.591,1.051 9.361,1.051 2.674,0 5.158,-0.096 7.355,-0.383 0.381,1.243 0.668,3.726 0.668,5.732 -2.101,0.287 -5.062,0.382 -8.214,0.382 -5.159,0 -11.654,-1.051 -15.856,-2.484 m -41.442,100.87 V 53.482 h 15.515 v 47.393 c 0,17.067 -8.322,27.082 -34.275,27.082 -7.476,0 -18.337,-1.552 -28.21,-3.949 V 53.482 h 15.516 v 60.087 c 4.231,0.706 8.603,1.129 12.271,1.129 15.516,0 19.183,-5.36 19.183,-16.503 M -950.148,-45.85 c -3.44,0 -6.877,0.478 -10.03,1.529 v 37.253 c 2.961,0.669 6.305,1.146 9.647,1.146 12.705,0 18.34,-7.355 18.34,-19.868 0,-12.896 -6.208,-20.06 -17.957,-20.06 m 0,45.85 c -6.018,0 -11.749,-1.051 -16.717,-2.675 v -66.099 h 6.687 v 18.817 c 2.866,-1.051 6.209,-1.624 10.411,-1.624 15.857,0 24.359,9.552 24.359,26.173 0,16.334 -7.929,25.408 -24.74,25.408 m 1067.16,0 c -5.348,0 -11.557,-0.955 -17.957,-2.675 v -47.76 h 6.685 V -7.26 c 3.631,0.861 7.643,1.338 11.08,1.338 11.75,0 15.094,-4.585 15.094,-13.469 v -31.044 h 6.686 v 32.287 C 138.6,-6.591 133.154,0 117.012,0"
             style="fill:#ec0000;fill-opacity:1;fill-rule:nonzero;stroke:none;stroke-width:0.83819693"
             id="path22"
             inkscape:connector-curvature="0" /></g></g></g></g></svg>